<svg width="24" height="28" viewBox="0 0 24 28" fill="none" xmlns="http://www.w3.org/2000/svg">
<path fill-rule="evenodd" clip-rule="evenodd" d="M12 0.23999C12.2546 0.23999 12.4988 0.341133 12.6788 0.521168C12.8589 0.701203 12.96 0.945383 12.96 1.19999V15.9499L17.7216 11.1883C17.8095 11.0939 17.9155 11.0183 18.0332 10.9658C18.151 10.9133 18.2781 10.8851 18.407 10.8829C18.5359 10.8806 18.6639 10.9043 18.7835 10.9526C18.903 11.0009 19.0116 11.0727 19.1028 11.1639C19.1939 11.255 19.2658 11.3636 19.3141 11.4832C19.3624 11.6027 19.3861 11.7307 19.3838 11.8596C19.3815 11.9885 19.3533 12.1157 19.3008 12.2334C19.2484 12.3512 19.1727 12.4572 19.0784 12.5451L12.6784 18.9451C12.4984 19.1248 12.2544 19.2258 12 19.2258C11.7456 19.2258 11.5016 19.1248 11.3216 18.9451L4.9216 12.5451C4.82728 12.4572 4.75163 12.3512 4.69916 12.2334C4.64669 12.1157 4.61848 11.9885 4.6162 11.8596C4.61393 11.7307 4.63764 11.6027 4.68592 11.4832C4.73421 11.3636 4.80607 11.255 4.89723 11.1639C4.98839 11.0727 5.09698 11.0009 5.21652 10.9526C5.33605 10.9043 5.46409 10.8806 5.59299 10.8829C5.72189 10.8851 5.84901 10.9133 5.96677 10.9658C6.08453 11.0183 6.19051 11.0939 6.2784 11.1883L11.04 15.9499V1.19999C11.04 0.945383 11.1411 0.701203 11.3212 0.521168C11.5012 0.341133 11.7454 0.23999 12 0.23999ZM1.33333 19.3333C1.61623 19.3333 1.88754 19.4457 2.08758 19.6457C2.28762 19.8458 2.4 20.1171 2.4 20.4V23.6C2.4 24.7819 3.35147 25.7333 4.5248 25.7333H19.4688C19.7489 25.7333 20.0262 25.6781 20.2849 25.5709C20.5436 25.4637 20.7786 25.3065 20.9765 25.1084C21.1745 24.9102 21.3314 24.675 21.4384 24.4162C21.5454 24.1574 21.6003 23.88 21.6 23.6V20.4C21.6 20.1171 21.7124 19.8458 21.9124 19.6457C22.1125 19.4457 22.3838 19.3333 22.6667 19.3333C22.9496 19.3333 23.2209 19.4457 23.4209 19.6457C23.621 19.8458 23.7333 20.1171 23.7333 20.4V23.6C23.7333 24.7312 23.2841 25.8161 22.4844 26.6162C21.6847 27.4163 20.6 27.8661 19.4688 27.8667H4.5248C3.96498 27.8664 3.41069 27.7558 2.89364 27.5411C2.37659 27.3265 1.90691 27.0121 1.51145 26.6158C1.11599 26.2196 0.802507 25.7493 0.588918 25.2318C0.37533 24.7143 0.265826 24.1598 0.266667 23.6V20.4C0.266667 20.1171 0.379048 19.8458 0.579087 19.6457C0.779126 19.4457 1.05044 19.3333 1.33333 19.3333Z" fill="white"/>
</svg>
