<svg width="24" height="48" viewBox="0 0 24 48" fill="none" xmlns="http://www.w3.org/2000/svg">
<path d="M9.24995 34L8.84995 30.8C8.63329 30.7167 8.42895 30.6167 8.23695 30.5C8.04495 30.3833 7.85762 30.2583 7.67495 30.125L4.69995 31.375L1.94995 26.625L4.52495 24.675C4.50828 24.5583 4.49995 24.4457 4.49995 24.337V23.663C4.49995 23.5543 4.50828 23.4417 4.52495 23.325L1.94995 21.375L4.69995 16.625L7.67495 17.875C7.85828 17.7417 8.04995 17.6167 8.24995 17.5C8.44995 17.3833 8.64995 17.2833 8.84995 17.2L9.24995 14H14.75L15.15 17.2C15.3666 17.2833 15.571 17.3833 15.763 17.5C15.955 17.6167 16.1423 17.7417 16.325 17.875L19.2999 16.625L22.0499 21.375L19.475 23.325C19.4916 23.4417 19.5 23.5543 19.5 23.663V24.337C19.5 24.4457 19.4833 24.5583 19.45 24.675L22.025 26.625L19.275 31.375L16.325 30.125C16.1416 30.2583 15.95 30.3833 15.75 30.5C15.55 30.6167 15.35 30.7167 15.15 30.8L14.75 34H9.24995ZM12.05 27.5C13.0166 27.5 13.8416 27.1583 14.525 26.475C15.2083 25.7917 15.55 24.9667 15.55 24C15.55 23.0333 15.2083 22.2083 14.525 21.525C13.8416 20.8417 13.0166 20.5 12.05 20.5C11.0666 20.5 10.2373 20.8417 9.56195 21.525C8.88662 22.2083 8.54928 23.0333 8.54995 24C8.54995 24.9667 8.88729 25.7917 9.56195 26.475C10.2366 27.1583 11.066 27.5 12.05 27.5ZM12.05 25.5C11.6333 25.5 11.279 25.354 10.987 25.062C10.695 24.77 10.5493 24.416 10.55 24C10.55 23.5833 10.696 23.229 10.988 22.937C11.28 22.645 11.634 22.4993 12.05 22.5C12.4666 22.5 12.821 22.646 13.113 22.938C13.405 23.23 13.5506 23.584 13.55 24C13.55 24.4167 13.404 24.771 13.112 25.063C12.82 25.355 12.466 25.5007 12.05 25.5ZM11 32H12.975L13.325 29.35C13.8416 29.2167 14.321 29.0207 14.763 28.762C15.205 28.5033 15.609 28.191 15.975 27.825L18.45 28.85L19.4249 27.15L17.275 25.525C17.3583 25.2917 17.4166 25.046 17.45 24.788C17.4833 24.53 17.5 24.2673 17.5 24C17.5 23.7333 17.4833 23.471 17.45 23.213C17.4166 22.955 17.3583 22.709 17.275 22.475L19.4249 20.85L18.45 19.15L15.975 20.2C15.6083 19.8167 15.2043 19.496 14.763 19.238C14.3216 18.98 13.8423 18.784 13.325 18.65L13 16H11.025L10.675 18.65C10.1583 18.7833 9.67928 18.9793 9.23795 19.238C8.79662 19.4967 8.39228 19.809 8.02495 20.175L5.54995 19.15L4.57495 20.85L6.72495 22.45C6.64162 22.7 6.58328 22.95 6.54995 23.2C6.51662 23.45 6.49995 23.7167 6.49995 24C6.49995 24.2667 6.51662 24.525 6.54995 24.775C6.58328 25.025 6.64162 25.275 6.72495 25.525L4.57495 27.15L5.54995 28.85L8.02495 27.8C8.39162 28.1833 8.79595 28.5043 9.23795 28.763C9.67995 29.0217 10.159 29.2173 10.675 29.35L11 32Z" fill="#0E0E0E"/>
</svg>
