<svg width="27" height="23" viewBox="0 0 27 23" fill="none" xmlns="http://www.w3.org/2000/svg">
<path d="M24.0723 2.85655C23.4614 2.26797 22.7361 1.80107 21.9378 1.48251C21.1396 1.16396 20.2839 1 19.4199 1C18.5558 1 17.7001 1.16396 16.9019 1.48251C16.1036 1.80107 15.3783 2.26797 14.7674 2.85655L13.4997 4.07749L12.2319 2.85655C10.998 1.66822 9.3245 1.00062 7.57951 1.00062C5.83452 1.00062 4.16099 1.66822 2.92709 2.85655C1.6932 4.04489 1 5.65662 1 7.33718C1 9.01774 1.6932 10.6295 2.92709 11.8178L4.19485 13.0387L13.4997 22L22.8045 13.0387L24.0723 11.8178C24.6834 11.2295 25.1682 10.531 25.499 9.76219C25.8298 8.99339 26 8.16936 26 7.33718C26 6.50499 25.8298 5.68096 25.499 4.91216C25.1682 4.14336 24.6834 3.44486 24.0723 2.85655V2.85655Z" stroke="#0E0E0E" stroke-width="2" stroke-linecap="round" stroke-linejoin="round"/>
</svg>
