<svg width="361" height="70" viewBox="0 0 361 70" fill="none" xmlns="http://www.w3.org/2000/svg">
<mask id="mask0_1_961" style="mask-type:alpha" maskUnits="userSpaceOnUse" x="224" y="12" width="46" height="46">
<rect x="224.225" y="12" width="45.61" height="45.61" fill="#D9D9D9"/>
</mask>
<g mask="url(#mask0_1_961)">
<path d="M257.807 45.9949C257.416 45.9949 257.091 45.8623 256.829 45.597C256.568 45.3317 256.437 45.0051 256.437 44.6171V24.9715C256.437 24.5994 256.571 24.2807 256.838 24.0154C257.104 23.7501 257.433 23.6175 257.823 23.6175C258.198 23.6175 258.516 23.7501 258.777 24.0154C259.038 24.2807 259.169 24.5994 259.169 24.9715V44.6171C259.169 45.0051 259.036 45.3317 258.769 45.597C258.502 45.8623 258.181 45.9949 257.807 45.9949ZM237.029 44.4983C236.57 44.8151 236.099 44.8467 235.616 44.5933C235.133 44.34 234.891 43.944 234.891 43.4056V26.1831C234.891 25.6487 235.133 25.2538 235.616 24.9983C236.099 24.7429 236.57 24.7815 237.029 25.1141L249.382 33.6659C249.794 33.9387 250 34.3197 250 34.8089C250 35.298 249.794 35.6693 249.382 35.9227L237.029 44.4983Z" fill="white"/>
</g>
<mask id="mask1_1_961" style="mask-type:alpha" maskUnits="userSpaceOnUse" x="81" y="12" width="46" height="46">
<rect width="45.61" height="45.61" transform="matrix(-1 0 0 1 126.615 12)" fill="#D9D9D9"/>
</mask>
<g mask="url(#mask1_1_961)">
<path d="M93.0337 45.9949C93.4241 45.9949 93.7499 45.8623 94.0112 45.597C94.2725 45.3317 94.4032 45.0051 94.4032 44.6171V24.9715C94.4032 24.5994 94.2698 24.2807 94.0029 24.0154C93.736 23.7501 93.4074 23.6175 93.0171 23.6175C92.6425 23.6175 92.3246 23.7501 92.0633 24.0154C91.802 24.2807 91.6713 24.5994 91.6713 24.9715V44.6171C91.6713 45.0051 91.8048 45.3317 92.0716 45.597C92.3385 45.8623 92.6592 45.9949 93.0337 45.9949ZM113.811 44.4983C114.27 44.8151 114.742 44.8467 115.225 44.5933C115.708 44.34 115.949 43.944 115.949 43.4056V26.1831C115.949 25.6487 115.708 25.2538 115.225 24.9983C114.742 24.7429 114.27 24.7815 113.811 25.1141L101.458 33.6659C101.047 33.9387 100.841 34.3197 100.841 34.8089C100.841 35.298 101.047 35.6693 101.458 35.9227L113.811 44.4983Z" fill="white"/>
</g>
<circle cx="175.005" cy="35" r="35" fill="white" fill-opacity="0.09"/>
<mask id="mask2_1_961" style="mask-type:alpha" maskUnits="userSpaceOnUse" x="152" y="12" width="47" height="46">
<rect x="152.615" y="12" width="45.61" height="45.61" fill="#D9D9D9"/>
</mask>
<g mask="url(#mask2_1_961)">
<path d="M170.075 46.3974C169.616 46.6983 169.153 46.7142 168.686 46.445C168.218 46.1757 167.985 45.764 167.985 45.2097V24.0913C167.985 23.5529 168.218 23.149 168.686 22.8798C169.153 22.6106 169.616 22.6264 170.075 22.9273L186.656 33.5221C187.084 33.8072 187.298 34.1873 187.298 34.6624C187.298 35.1375 187.084 35.5096 186.656 35.7789L170.075 46.3974Z" fill="white"/>
</g>
<path fill-rule="evenodd" clip-rule="evenodd" d="M344.005 18.24C344.26 18.24 344.504 18.3411 344.684 18.5212C344.864 18.7012 344.965 18.9454 344.965 19.2V33.9499L349.727 29.1883C349.815 29.0939 349.921 29.0183 350.038 28.9658C350.156 28.9133 350.283 28.8851 350.412 28.8829C350.541 28.8806 350.669 28.9043 350.789 28.9526C350.908 29.0009 351.017 29.0727 351.108 29.1639C351.199 29.255 351.271 29.3636 351.319 29.4832C351.368 29.6027 351.391 29.7307 351.389 29.8596C351.387 29.9885 351.359 30.1157 351.306 30.2334C351.254 30.3512 351.178 30.4572 351.084 30.5451L344.684 36.9451C344.504 37.1248 344.26 37.2258 344.005 37.2258C343.751 37.2258 343.507 37.1248 343.327 36.9451L336.927 30.5451C336.833 30.4572 336.757 30.3512 336.704 30.2334C336.652 30.1157 336.624 29.9885 336.621 29.8596C336.619 29.7307 336.643 29.6027 336.691 29.4832C336.739 29.3636 336.811 29.255 336.902 29.1639C336.994 29.0727 337.102 29.0009 337.222 28.9526C337.341 28.9043 337.469 28.8806 337.598 28.8829C337.727 28.8851 337.854 28.9133 337.972 28.9658C338.09 29.0183 338.196 29.0939 338.284 29.1883L343.045 33.9499V19.2C343.045 18.9454 343.146 18.7012 343.326 18.5212C343.506 18.3411 343.751 18.24 344.005 18.24ZM333.339 37.3333C333.621 37.3333 333.893 37.4457 334.093 37.6457C334.293 37.8458 334.405 38.1171 334.405 38.4V41.6C334.405 42.7819 335.357 43.7333 336.53 43.7333H351.474C351.754 43.7333 352.031 43.6781 352.29 43.5709C352.549 43.4637 352.784 43.3065 352.982 43.1084C353.18 42.9102 353.337 42.675 353.444 42.4162C353.551 42.1574 353.606 41.88 353.605 41.6V38.4C353.605 38.1171 353.718 37.8458 353.918 37.6457C354.118 37.4457 354.389 37.3333 354.672 37.3333C354.955 37.3333 355.226 37.4457 355.426 37.6457C355.626 37.8458 355.739 38.1171 355.739 38.4V41.6C355.739 42.7312 355.289 43.8161 354.49 44.6162C353.69 45.4163 352.605 45.8661 351.474 45.8667H336.53C335.97 45.8664 335.416 45.7558 334.899 45.5411C334.382 45.3265 333.912 45.0121 333.517 44.6158C333.121 44.2196 332.808 43.7493 332.594 43.2318C332.381 42.7143 332.271 42.1598 332.272 41.6V38.4C332.272 38.1171 332.384 37.8458 332.584 37.6457C332.784 37.4457 333.056 37.3333 333.339 37.3333Z" fill="white"/>
<mask id="mask3_1_961" style="mask-type:alpha" maskUnits="userSpaceOnUse" x="-5" y="17" width="36" height="35">
<rect x="-4.99475" y="17" width="35" height="35" fill="#D9D9D9"/>
</mask>
<g mask="url(#mask3_1_961)">
<path d="M19.7969 41.7918V37.4168C19.7969 37.0036 19.9366 36.6573 20.2161 36.3778C20.4957 36.0983 20.842 35.9585 21.2552 35.9585C21.6684 35.9585 22.0148 36.0922 22.2943 36.3595C22.5738 36.6269 22.7135 36.9672 22.7135 37.3804V43.2502C22.7135 43.6634 22.5738 44.0097 22.2943 44.2892C22.0148 44.5687 21.6684 44.7085 21.2552 44.7085H4.99479L6.19792 45.9116C6.48958 46.2033 6.64149 46.5557 6.65365 46.9689C6.6658 47.3821 6.52604 47.7345 6.23438 48.0262C5.94271 48.3179 5.59635 48.4637 5.19531 48.4637C4.79427 48.4637 4.46007 48.33 4.19271 48.0627L0.401042 44.271C0.133681 44.0036 0 43.6634 0 43.2502C0 42.837 0.133681 42.4967 0.401042 42.2293L4.15625 38.4741C4.44792 38.1825 4.79427 38.0366 5.19531 38.0366C5.59635 38.0366 5.94271 38.1825 6.23438 38.4741C6.52604 38.7658 6.67188 39.1121 6.67188 39.5132C6.67188 39.9142 6.52604 40.2606 6.23438 40.5522L4.99479 41.7918H19.7969ZM5.21354 27.2085V31.5835C5.21354 31.9967 5.07378 32.343 4.79427 32.6226C4.51476 32.9021 4.1684 33.0418 3.75521 33.0418C3.34201 33.0418 2.99566 32.9081 2.71615 32.6408C2.43663 32.3734 2.29688 32.0331 2.29688 31.62V25.7502C2.29688 25.337 2.43663 24.9906 2.71615 24.7111C2.99566 24.4316 3.34201 24.2918 3.75521 24.2918H20.0156L18.8125 23.0887C18.5208 22.797 18.3689 22.4446 18.3568 22.0314C18.3446 21.6182 18.4844 21.2658 18.776 20.9741C19.0677 20.6825 19.4141 20.5366 19.8151 20.5366C20.2161 20.5366 20.5503 20.6703 20.8177 20.9377L24.6094 24.7293C24.8767 24.9967 25.0104 25.337 25.0104 25.7502C25.0104 26.1634 24.8767 26.5036 24.6094 26.771L20.8542 30.5262C20.5625 30.8179 20.2161 30.9637 19.8151 30.9637C19.4141 30.9637 19.0677 30.8179 18.776 30.5262C18.4844 30.2345 18.3385 29.8882 18.3385 29.4871C18.3385 29.0861 18.4844 28.7397 18.776 28.4481L20.0156 27.2085H5.21354Z" fill="white"/>
</g>
</svg>
