<svg width="32" height="32" viewBox="0 0 32 32" fill="none" xmlns="http://www.w3.org/2000/svg">
<path d="M16 2.66669C23.364 2.66669 29.3334 8.63603 29.3334 16C29.3334 23.364 23.364 29.3334 16 29.3334C8.63602 29.3334 2.66669 23.364 2.66669 16H5.33335C5.33355 18.5083 6.2177 20.9364 7.83046 22.8575C9.44322 24.7786 11.6814 26.0699 14.1518 26.5045C16.6222 26.9391 19.1667 26.4893 21.3383 25.2339C23.5099 23.9786 25.1696 21.9982 26.0259 19.6405C26.8822 17.2829 26.8802 14.6989 26.0204 12.3426C25.1605 9.98625 23.4977 8.00832 21.3242 6.75631C19.1507 5.5043 16.6055 5.05831 14.1358 5.4967C11.6661 5.93508 9.42985 7.22979 7.82002 9.15336L10.6667 12H2.66669V4.00003L5.92935 7.26136C7.1797 5.8174 8.72633 4.65964 10.4641 3.8668C12.2018 3.07396 14.09 2.66465 16 2.66669ZM11.3334 11.3334H13.3334V20.6667H11.3334V11.3334ZM22.3334 11.3334H16V17H19.8334C20.0544 17 20.2663 17.0878 20.4226 17.2441C20.5789 17.4004 20.6667 17.6123 20.6667 17.8334C20.6667 18.0544 20.5789 18.2663 20.4226 18.4226C20.2663 18.5789 20.0544 18.6667 19.8334 18.6667H16V20.6667H19.8334C20.5848 20.6667 21.3055 20.3682 21.8368 19.8368C22.3682 19.3055 22.6667 18.5848 22.6667 17.8334C22.6667 17.0819 22.3682 16.3612 21.8368 15.8299C21.3055 15.2985 20.5848 15 19.8334 15H18V13.3334H22.3334V11.3334Z" fill="white"/>
</svg>
