<svg width="17" height="17" viewBox="0 0 17 17" fill="none" xmlns="http://www.w3.org/2000/svg">
<path d="M15.1405 11.621C15.0798 11.6556 15.0129 11.6779 14.9436 11.6866C14.8743 11.6953 14.804 11.6903 14.7366 11.6718C14.6693 11.6533 14.6062 11.6217 14.5511 11.5788C14.496 11.5359 14.4499 11.4825 14.4154 11.4218L13.1537 9.21711C12.4201 9.71308 11.611 10.0867 10.7577 10.3234L11.1475 12.6623C11.159 12.7311 11.1569 12.8016 11.1411 12.8696C11.1254 12.9376 11.0964 13.0018 11.0558 13.0586C11.0152 13.1154 10.9639 13.1637 10.9046 13.2006C10.8454 13.2375 10.7794 13.2624 10.7106 13.2739C10.6823 13.2785 10.6536 13.2809 10.6249 13.2812C10.4992 13.281 10.3777 13.2362 10.2819 13.1549C10.1861 13.0736 10.1222 12.9609 10.1016 12.8369L9.71848 10.5406C8.91044 10.653 8.09073 10.653 7.2827 10.5406L6.89954 12.8369C6.87892 12.9611 6.81486 13.074 6.71878 13.1553C6.6227 13.2367 6.50084 13.2813 6.37493 13.2812C6.34557 13.281 6.31626 13.2786 6.28728 13.2739C6.21841 13.2624 6.15248 13.2375 6.09324 13.2006C6.03401 13.1637 5.98263 13.1154 5.94205 13.0586C5.90147 13.0018 5.87248 12.9376 5.85674 12.8696C5.841 12.8016 5.83882 12.7311 5.85032 12.6623L6.24212 10.3234C5.38922 10.086 4.58051 9.71166 3.84752 9.21512L2.58979 11.4218C2.55491 11.4826 2.50839 11.5359 2.45291 11.5787C2.39742 11.6215 2.33404 11.653 2.2664 11.6713C2.19875 11.6896 2.12816 11.6944 2.05866 11.6854C1.98915 11.6765 1.9221 11.6539 1.86131 11.619C1.80053 11.5841 1.74722 11.5376 1.70441 11.4821C1.6616 11.4266 1.63014 11.3633 1.61183 11.2956C1.59352 11.228 1.5887 11.1574 1.59767 11.0879C1.60664 11.0184 1.62921 10.9513 1.66409 10.8905L2.99221 8.56633C2.52571 8.1633 2.09674 7.71877 1.71057 7.23821C1.66241 7.18444 1.62572 7.12142 1.60273 7.053C1.57973 6.98457 1.57093 6.91218 1.57684 6.84024C1.58276 6.7683 1.60327 6.69832 1.63713 6.63457C1.67099 6.57082 1.71749 6.51465 1.77379 6.46946C1.83008 6.42428 1.89499 6.39105 1.96456 6.37179C2.03413 6.35253 2.10689 6.34765 2.1784 6.35745C2.24992 6.36724 2.31869 6.39151 2.38051 6.42877C2.44234 6.46603 2.49592 6.5155 2.53799 6.57415C3.64033 7.93813 5.56876 9.56242 8.49992 9.56242C11.4311 9.56242 13.3595 7.93614 14.4619 6.57415C14.5034 6.5143 14.5569 6.46364 14.6189 6.42533C14.6809 6.38702 14.7502 6.36189 14.8223 6.35148C14.8944 6.34108 14.968 6.34563 15.0383 6.36486C15.1086 6.38408 15.1742 6.41757 15.231 6.46324C15.2878 6.5089 15.3346 6.56577 15.3685 6.6303C15.4024 6.69483 15.4226 6.76564 15.4279 6.83834C15.4333 6.91103 15.4236 6.98404 15.3995 7.05283C15.3755 7.12163 15.3375 7.18473 15.2879 7.23821C14.9018 7.71877 14.4728 8.1633 14.0063 8.56633L15.3344 10.8905C15.3701 10.9511 15.3934 11.0182 15.4029 11.0878C15.4124 11.1575 15.4081 11.2283 15.39 11.2963C15.372 11.3642 15.3407 11.4279 15.2978 11.4837C15.255 11.5394 15.2015 11.5861 15.1405 11.621Z" fill="#0E0E0E"/>
</svg>
