<svg width="32" height="32" viewBox="0 0 32 32" fill="none" xmlns="http://www.w3.org/2000/svg">
<path d="M16 2.66663C23.364 2.66663 29.3334 8.63597 29.3334 16C29.3334 23.364 23.364 29.3333 16 29.3333C8.63602 29.3333 2.66669 23.364 2.66669 16H5.33335C5.33355 18.5083 6.2177 20.9363 7.83046 22.8574C9.44322 24.7785 11.6814 26.0698 14.1518 26.5045C16.6222 26.9391 19.1667 26.4892 21.3383 25.2339C23.5099 23.9786 25.1696 21.9981 26.0259 19.6405C26.8822 17.2828 26.8802 14.6988 26.0204 12.3425C25.1605 9.98619 23.4977 8.00826 21.3242 6.75625C19.1507 5.50424 16.6055 5.05825 14.1358 5.49663C11.6661 5.93502 9.42985 7.22973 7.82002 9.1533L10.6667 12H2.66669V3.99997L5.92935 7.2613C7.1797 5.81734 8.72633 4.65958 10.4641 3.86674C12.2018 3.0739 14.09 2.66459 16 2.66663ZM11.3334 11.3333H13.3334V20.6666H11.3334V11.3333ZM22.3334 11.3333H16V17H19.8334C20.0544 17 20.2663 17.0878 20.4226 17.244C20.5789 17.4003 20.6667 17.6123 20.6667 17.8333C20.6667 18.0543 20.5789 18.2663 20.4226 18.4226C20.2663 18.5788 20.0544 18.6666 19.8334 18.6666H16V20.6666H19.8334C20.5848 20.6666 21.3055 20.3681 21.8368 19.8368C22.3682 19.3054 22.6667 18.5847 22.6667 17.8333C22.6667 17.0819 22.3682 16.3612 21.8368 15.8298C21.3055 15.2985 20.5848 15 19.8334 15H18V13.3333H22.3334V11.3333Z" fill="#0E0E0E"/>
</svg>
