<svg width="27" height="29" viewBox="0 0 27 29" fill="none" xmlns="http://www.w3.org/2000/svg">
<path d="M20.7916 21.7918V17.4168C20.7916 17.0036 20.9314 16.6572 21.2109 16.3777C21.4904 16.0982 21.8368 15.9585 22.25 15.9585C22.6632 15.9585 23.0095 16.0921 23.289 16.3595C23.5686 16.6269 23.7083 16.9671 23.7083 17.3803V23.2501C23.7083 23.6633 23.5686 24.0097 23.289 24.2892C23.0095 24.5687 22.6632 24.7085 22.25 24.7085H5.98956L7.19268 25.9116C7.48435 26.2033 7.63626 26.5557 7.64841 26.9689C7.66056 27.3821 7.52081 27.7345 7.22914 28.0262C6.93747 28.3178 6.59112 28.4637 6.19008 28.4637C5.78904 28.4637 5.45484 28.33 5.18747 28.0626L1.39581 24.271C1.12845 24.0036 0.994766 23.6633 0.994766 23.2501C0.994766 22.8369 1.12845 22.4967 1.39581 22.2293L5.15102 18.4741C5.44268 18.1824 5.78904 18.0366 6.19008 18.0366C6.59112 18.0366 6.93747 18.1824 7.22914 18.4741C7.52081 18.7658 7.66664 19.1121 7.66664 19.5132C7.66664 19.9142 7.52081 20.2605 7.22914 20.5522L5.98956 21.7918H20.7916ZM6.20831 7.20847V11.5835C6.20831 11.9967 6.06855 12.343 5.78904 12.6225C5.50952 12.902 5.16317 13.0418 4.74997 13.0418C4.33678 13.0418 3.99043 12.9081 3.71091 12.6408C3.4314 12.3734 3.29164 12.0331 3.29164 11.6199V5.75013C3.29164 5.33694 3.4314 4.99058 3.71091 4.71107C3.99043 4.43156 4.33678 4.2918 4.74997 4.2918H21.0104L19.8073 3.08867C19.5156 2.79701 19.3637 2.44458 19.3515 2.03138C19.3394 1.61819 19.4791 1.26576 19.7708 0.974091C20.0625 0.682424 20.4088 0.536591 20.8099 0.536591C21.2109 0.536591 21.5451 0.670271 21.8125 0.937632L25.6041 4.7293C25.8715 4.99666 26.0052 5.33694 26.0052 5.75013C26.0052 6.16333 25.8715 6.5036 25.6041 6.77097L21.8489 10.5262C21.5573 10.8178 21.2109 10.9637 20.8099 10.9637C20.4088 10.9637 20.0625 10.8178 19.7708 10.5262C19.4791 10.2345 19.3333 9.88815 19.3333 9.48711C19.3333 9.08607 19.4791 8.73972 19.7708 8.44805L21.0104 7.20847H6.20831Z" fill="white"/>
</svg>
